<svg width="24" height="24" viewBox="0 0 24 24" fill="none" xmlns="http://www.w3.org/2000/svg">
<path d="M2.04457 8.04598C1.44448 8.54613 1.44737 9.44804 1.99975 10.0004C2.55181 10.5525 3.44277 10.5449 4.05205 10.0567C8.68517 6.34455 15.3129 6.34443 19.9462 10.0564C20.5557 10.5447 21.4471 10.5523 21.9993 10C22.5516 9.44773 22.5549 8.54605 21.9552 8.04561C16.2065 3.24802 7.80112 3.24814 2.04457 8.04598ZM9.78101 16.3822C9.31091 16.671 9.31535 17.316 9.70551 17.7062L11.2922 19.2929C11.6828 19.6834 12.3159 19.6834 12.7064 19.2929L14.2932 17.7062C14.6833 17.316 14.6878 16.671 14.2177 16.3822C14.0283 16.2658 13.8296 16.1642 13.6234 16.0786C13.1086 15.865 12.5567 15.755 11.9993 15.755C11.442 15.755 10.8901 15.865 10.3753 16.0786C10.1691 16.1642 9.97038 16.2658 9.78101 16.3822ZM6.06895 12.074C5.44333 12.5422 5.44765 13.4483 6.0002 14.0009C6.55208 14.5527 7.4411 14.5385 8.0917 14.1074C9.24177 13.3453 10.5992 12.9302 11.9993 12.9302C13.3992 12.9302 14.7563 13.3451 15.9062 14.1069C16.5573 14.5382 17.4469 14.5525 17.9991 14.0002C18.5515 13.4478 18.5565 12.5421 17.9314 12.0735C14.4302 9.44866 9.57683 9.44884 6.06895 12.074Z" fill="#566B8A"></path>
</svg>