<svg width="24" height="24" viewBox="0 0 24 24" fill="none" xmlns="http://www.w3.org/2000/svg">
<path d="M4.70508 13.9243H13.9043V4.7251H4.70508V13.9243ZM15.3047 14.3247C15.3047 14.8424 14.9114 15.2685 14.4072 15.3198L14.3047 15.3247H4.30469L4.20215 15.3198C3.73172 15.2719 3.35747 14.8977 3.30957 14.4272L3.30469 14.3247V4.32471C3.30469 3.77242 3.7524 3.32471 4.30469 3.32471H14.3047C14.857 3.32471 15.3047 3.77242 15.3047 4.32471V14.3247Z" fill="white"></path>
<path d="M10.0957 19.2749H19.2949V10.0757H10.0957V19.2749ZM20.6953 19.6753C20.6953 20.193 20.302 20.6191 19.7979 20.6704L19.6953 20.6753H9.69531L9.59277 20.6704C9.12235 20.6225 8.7481 20.2483 8.7002 19.7778L8.69531 19.6753V9.67529C8.69531 9.12301 9.14303 8.67529 9.69531 8.67529H19.6953C20.2476 8.67529 20.6953 9.12301 20.6953 9.67529V19.6753Z" fill="white"></path>
</svg>