<svg width="24" height="24" viewBox="0 0 24 24" fill="none" xmlns="http://www.w3.org/2000/svg">
<path d="M9.5 7.23016C9.5 6.40174 8.82843 5.73016 8 5.73016C7.17157 5.73016 6.5 6.40174 6.5 7.23016V7.86664H5.34975C4.88045 7.86664 4.5 8.24708 4.5 8.71639C4.5 9.18569 4.88045 9.56613 5.34975 9.56613H6.5V10.2302C6.5 11.0586 7.17157 11.7302 8 11.7302C8.82843 11.7302 9.5 11.0586 9.5 10.2302V9.56613H18.6503C19.1196 9.56613 19.5 9.18569 19.5 8.71639C19.5 8.24708 19.1196 7.86664 18.6503 7.86664H9.5V7.23016Z" fill="#566B8A"></path>
<path d="M14.5 13.7698C14.5 12.9414 15.1716 12.2698 16 12.2698C16.8284 12.2698 17.5 12.9414 17.5 13.7698V14.4063H18.6503C19.1196 14.4063 19.5 14.7867 19.5 15.256C19.5 15.7253 19.1196 16.1058 18.6503 16.1058H17.5V16.7698C17.5 17.5982 16.8284 18.2698 16 18.2698C15.1716 18.2698 14.5 17.5982 14.5 16.7698V16.1058H5.34975C4.88045 16.1058 4.5 15.7253 4.5 15.256C4.5 14.7867 4.88045 14.4063 5.34975 14.4063H14.5V13.7698Z" fill="#566B8A"></path>
</svg>