<svg xmlns="http://www.w3.org/2000/svg" width="62.361" height="14.969" viewBox="0 0 62.361 14.969" fill="none">
  <path d="M 19.28 3.802 C 21.051 3.803 22.387 4.31 23.287 5.325 C 24.187 6.341 24.637 7.823 24.636 9.772 L 24.636 10.263 L 17.109 10.263 C 17.109 10.958 17.324 11.508 17.754 11.911 C 18.184 12.313 18.719 12.513 19.359 12.512 C 20.326 12.511 20.946 12.158 21.219 11.451 L 24.553 11.451 C 24.252 12.554 23.656 13.417 22.763 14.038 C 21.871 14.658 20.709 14.968 19.276 14.969 C 18.158 14.969 17.191 14.734 16.374 14.265 L 16.374 14.262 C 15.566 13.804 14.912 13.118 14.494 12.289 C 14.058 11.443 13.84 10.475 13.841 9.386 C 13.841 8.296 14.051 7.409 14.474 6.563 C 14.889 5.725 15.539 5.025 16.345 4.549 C 17.17 4.052 18.149 3.803 19.28 3.802 Z M 30.926 3.802 C 32.07 3.802 33.042 4.036 33.88 4.499 C 34.702 4.946 35.374 5.625 35.81 6.453 C 36.26 7.291 36.485 8.255 36.486 9.346 C 36.486 10.436 36.262 11.428 35.81 12.28 C 35.374 13.119 34.698 13.809 33.868 14.262 C 33.022 14.734 32.022 14.966 30.863 14.966 C 29.704 14.966 28.748 14.733 27.91 14.27 L 27.907 14.273 C 27.084 13.827 26.412 13.147 25.975 12.32 C 25.526 11.481 25.301 10.51 25.3 9.406 C 25.3 8.301 25.525 7.326 25.975 6.481 C 26.417 5.644 27.097 4.957 27.93 4.507 C 28.782 4.036 29.781 3.801 30.926 3.802 Z M 42.39 10.244 L 42.43 10.244 L 45.214 0 L 49.099 0 L 44.356 14.62 L 40.471 14.62 L 35.604 0 L 39.632 0 L 42.39 10.244 Z M 6.481 0 C 8.526 0 10.123 0.637 11.274 1.91 C 12.426 3.187 13.002 4.989 13.001 7.318 C 13.001 9.647 12.456 11.464 11.365 12.725 C 10.274 13.986 8.713 14.616 6.682 14.617 L 0 14.617 L 0 0 L 6.481 0 Z M 56.943 0 C 58.579 0.001 59.857 0.365 60.777 1.093 C 61.697 1.822 62.157 2.848 62.157 4.171 C 62.157 5.166 61.898 5.974 61.379 6.594 C 60.86 7.214 60.131 7.627 59.192 7.833 L 59.192 7.873 C 59.956 8.008 60.536 8.338 60.931 8.863 C 61.326 9.388 61.588 9.968 61.717 10.601 C 61.846 11.234 61.937 11.98 61.992 12.839 C 62.033 13.384 62.073 13.772 62.114 14.003 C 62.154 14.236 62.236 14.373 62.361 14.413 L 62.361 14.617 L 58.54 14.617 C 58.444 14.521 58.379 14.357 58.346 14.125 C 58.303 13.786 58.28 13.445 58.276 13.103 C 58.26 12.5 58.202 11.898 58.102 11.303 C 58.02 10.838 57.807 10.405 57.489 10.056 C 57.169 9.701 56.681 9.524 56.026 9.525 L 53.737 9.525 L 53.737 14.617 L 50.057 14.617 L 50.057 0 L 56.943 0 Z M 30.904 6.26 C 30.183 6.26 29.604 6.53 29.206 7.066 C 28.811 7.605 28.613 8.379 28.612 9.386 C 28.613 10.395 28.811 11.168 29.206 11.706 C 29.601 12.245 30.167 12.513 30.904 12.512 C 31.643 12.512 32.185 12.242 32.58 11.706 C 32.975 11.167 33.173 10.393 33.174 9.386 C 33.173 8.379 32.975 7.605 32.58 7.066 C 32.185 6.527 31.626 6.258 30.904 6.259 M 3.681 11.614 L 6.032 11.614 C 8.172 11.614 9.242 10.183 9.241 7.32 C 9.241 4.457 8.171 3.007 6.032 3.006 L 3.68 3.006 L 3.681 11.614 Z M 19.276 6.176 C 18.634 6.176 18.146 6.352 17.762 6.706 C 17.381 7.061 17.17 7.573 17.13 8.241 L 21.34 8.241 C 21.34 7.573 21.157 7.061 20.79 6.706 C 20.421 6.353 19.917 6.176 19.276 6.176 Z M 53.736 6.522 L 56.23 6.522 C 56.98 6.522 57.542 6.379 57.917 6.093 C 58.292 5.806 58.479 5.363 58.479 4.764 C 58.479 4.165 58.292 3.722 57.917 3.435 C 57.542 3.148 56.98 3.005 56.23 3.006 L 53.736 3.006 L 53.736 6.522 Z" fill="currentColor" fill-rule="nonzero"></path>
</svg>