<svg width="20" height="20" viewBox="0 0 20 20" fill="none" xmlns="http://www.w3.org/2000/svg">
<path fill-rule="evenodd" clip-rule="evenodd" d="M14.9621 2.43994C16.0913 2.45077 16.9438 3.29244 17.4713 4.27244C18.0188 5.28911 18.3346 6.64161 18.3346 8.09661C18.3346 9.54994 18.0188 10.9033 17.4713 11.9199C16.9421 12.9024 16.088 13.7449 14.9546 13.7524C13.1455 13.7858 11.1321 13.0724 9.35464 12.7491L9.5613 15.4374C9.6363 16.4149 9.35964 17.4124 8.19797 17.5091C7.3913 17.5774 6.53964 17.5758 5.73547 17.5116C4.7763 17.4358 4.3688 16.6116 4.3063 15.7249L4.02297 11.7633C3.81844 11.7148 3.61957 11.645 3.42964 11.5549C3.05037 11.3686 2.71448 11.1047 2.44373 10.7802C2.17299 10.4558 1.97342 10.0781 1.85797 9.67161C1.60547 8.78411 1.6038 7.41327 1.85797 6.52077C1.97342 6.11428 2.17299 5.73659 2.44373 5.41215C2.71448 5.08771 3.05037 4.82378 3.42964 4.63744C3.8088 4.45077 4.25714 4.36994 4.85797 4.26077C8.1763 3.65744 13.8096 2.43994 14.9621 2.43994ZM14.9955 12.2416L14.6396 12.1774C14.3646 12.0583 14.0421 11.7691 13.7388 11.2049C13.3305 10.4474 13.0555 9.34994 13.0555 8.09661C13.0555 6.84327 13.3305 5.74494 13.7388 4.98744C13.9905 4.52077 14.2538 4.24161 14.4938 4.09244C14.5871 4.03411 14.6946 4.00494 14.803 3.98577C14.9305 3.96244 15.063 3.94994 15.1855 3.99327C15.473 4.09494 15.8188 4.38411 16.1438 4.98744C16.5513 5.74494 16.8263 6.84244 16.8263 8.09577C16.8263 9.34911 16.5513 10.4483 16.143 11.2049C15.743 11.9483 15.3113 12.2141 14.9955 12.2416Z" fill="#7D92AF"></path>
</svg>