<svg width="24" height="24" viewBox="0 0 24 24" fill="none" xmlns="http://www.w3.org/2000/svg">
<path d="M9.25 10C9.46667 10 9.64544 10.0712 9.78711 10.2129C9.92878 10.3546 10 10.5333 10 10.75V15.25C10 15.4667 9.92878 15.6455 9.78711 15.7871C9.64544 15.9288 9.46667 16 9.25 16C9.03333 16 8.85456 15.9288 8.71289 15.7871C8.57122 15.6455 8.5 15.4667 8.5 15.25V11.5H7.75C7.53333 11.5 7.35456 11.4288 7.21289 11.2871C7.07122 11.1455 7 10.9667 7 10.75C7 10.5333 7.07122 10.3546 7.21289 10.2129C7.35456 10.0712 7.53333 10 7.75 10H9.25Z" fill="white"></path>
<path d="M12.25 16H15C15.2833 16 15.5208 15.9042 15.7125 15.7125C15.9042 15.5208 16 15.2833 16 15V13.25C16 13.0333 15.9292 12.8542 15.7875 12.7125C15.6458 12.5708 15.4667 12.5 15.25 12.5H13V11.5H15.25C15.4667 11.5 15.6458 11.4292 15.7875 11.2875C15.9292 11.1458 16 10.9667 16 10.75C16 10.5333 15.9292 10.3542 15.7875 10.2125C15.6458 10.0708 15.4667 10 15.25 10H12.25C12.0333 10 11.8542 10.0708 11.7125 10.2125C11.5708 10.3542 11.5 10.5333 11.5 10.75L11.5 12.75C11.5 12.9667 11.5708 13.1458 11.7125 13.2875C11.8542 13.4292 12.0333 13.5 12.25 13.5H14.5L14.5 14.5H12.25C12.0333 14.5 11.8542 14.5708 11.7125 14.7125C11.5708 14.8542 11.5 15.0333 11.5 15.25C11.5 15.4667 11.5708 15.6458 11.7125 15.7875C11.8542 15.9292 12.0333 16 12.25 16Z" fill="white"></path>
<path d="M22 13C22 7.47716 17.5228 3.00001 12 3.00001H11.9141L12.707 2.20704L12.7754 2.13087C13.0957 1.7381 13.0731 1.15909 12.707 0.792978C12.3409 0.426863 11.7619 0.404269 11.3691 0.724619L11.293 0.792978L8.79297 3.29298L8.72461 3.36915C8.42562 3.73574 8.42562 4.26428 8.72461 4.63087L8.79297 4.70704L11.293 7.20704C11.6835 7.59757 12.3165 7.59757 12.707 7.20704C13.0976 6.81652 13.0976 6.1835 12.707 5.79298L11.9141 5.00001H12C16.4183 5.00001 20 8.58173 20 13C20 17.4183 16.4183 21 12 21C7.58172 21 4 17.4183 4 13C4 12.4477 3.55228 12 3 12C2.44772 12 2 12.4477 2 13C2 18.5229 6.47715 23 12 23C17.5228 23 22 18.5229 22 13Z" fill="white"></path>
</svg>