<svg width="24" height="24" viewBox="0 0 24 24" fill="none" xmlns="http://www.w3.org/2000/svg">
<path d="M15.95 16.95C16.3422 17.3422 16.3457 17.9839 15.9077 18.3241C14.7224 19.2449 13.2958 19.818 11.7888 19.9673C9.94705 20.1498 8.09901 19.6881 6.55952 18.6608C5.02004 17.6335 3.88436 16.1042 3.34597 14.3335C2.80759 12.5628 2.8998 10.6601 3.60691 8.94979C4.31402 7.23944 5.59227 5.82716 7.22389 4.95357C8.85551 4.07998 10.7395 3.79914 12.555 4.15888C14.3705 4.51862 16.005 5.4967 17.1802 6.92647C18.3554 8.35624 18.9985 10.1492 19 12H17C17.0012 10.6118 16.521 9.26614 15.6413 8.1923C14.7615 7.11846 13.5366 6.38291 12.1753 6.11097C10.814 5.83904 9.40056 6.04755 8.17577 6.70098C6.95098 7.35442 5.99066 8.41233 5.45845 9.69446C4.92625 10.9766 4.85509 12.4036 5.25711 13.7323C5.65913 15.061 6.50944 16.2092 7.66315 16.9813C8.81687 17.7533 10.2026 18.1014 11.5842 17.9662C12.6306 17.8638 13.6257 17.489 14.4736 16.887C14.9259 16.5659 15.5578 16.5578 15.95 16.95ZM14.8536 12.8536C14.5386 12.5386 14.7617 12 15.2071 12H20.7929C21.2383 12 21.4614 12.5386 21.1464 12.8536L18.3536 15.6465C18.1583 15.8417 17.8417 15.8417 17.6464 15.6465L14.8536 12.8536Z" fill="white"></path>
</svg>