<svg width="20" height="20" viewBox="0 0 20 20" fill="none" xmlns="http://www.w3.org/2000/svg">
<g clip-path="url(#clip0_4002_2008)">
<path d="M15.1987 5.11417C14.226 4.66837 13.1997 4.35018 12.1454 4.1675C12.1358 4.16623 12.1261 4.16775 12.1174 4.17189C12.1087 4.17603 12.1013 4.18261 12.0962 4.19084C11.9646 4.425 11.8179 4.73084 11.7162 4.97167C10.5797 4.79902 9.42362 4.79902 8.28708 4.97167C8.1719 4.70483 8.04283 4.44419 7.90041 4.19084C7.89552 4.1826 7.88836 4.17594 7.87979 4.17166C7.87122 4.16738 7.8616 4.16564 7.85208 4.16667C6.78041 4.35084 5.75541 4.675 4.79875 5.11334C4.79035 5.11683 4.78332 5.12298 4.77875 5.13084C2.83375 8.03667 2.30041 10.8708 2.56208 13.6692C2.5643 13.6842 2.57097 13.6961 2.58208 13.705C3.71401 14.5437 4.98042 15.1837 6.32708 15.5975C6.33662 15.6003 6.34679 15.6003 6.35629 15.5973C6.36579 15.5943 6.37419 15.5886 6.38041 15.5808C6.6693 15.1864 6.92486 14.7708 7.14708 14.3342C7.1502 14.3281 7.15199 14.3215 7.15231 14.3147C7.15264 14.3079 7.1515 14.3011 7.14897 14.2947C7.14644 14.2884 7.14258 14.2827 7.13766 14.278C7.13273 14.2733 7.12685 14.2697 7.12041 14.2675C6.71656 14.1126 6.32537 13.9265 5.95041 13.7108C5.94359 13.7068 5.93785 13.7012 5.9337 13.6945C5.92956 13.6877 5.92713 13.6801 5.92664 13.6722C5.92614 13.6643 5.9276 13.6564 5.93087 13.6492C5.93414 13.642 5.93914 13.6357 5.94541 13.6308C6.02486 13.5719 6.10236 13.5111 6.17791 13.4483C6.18473 13.4432 6.19275 13.4399 6.20121 13.4387C6.20967 13.4375 6.21829 13.4386 6.22625 13.4417C8.68125 14.5625 11.3387 14.5625 13.7646 13.4417C13.7728 13.4382 13.7817 13.4371 13.7905 13.4382C13.7993 13.4394 13.8076 13.4429 13.8146 13.4483C13.8901 13.5106 13.9676 13.5714 14.0471 13.6308C14.0534 13.6356 14.0584 13.6418 14.0618 13.649C14.0651 13.6562 14.0667 13.664 14.0662 13.6719C14.0658 13.6798 14.0635 13.6875 14.0594 13.6943C14.0554 13.7011 14.0497 13.7068 14.0429 13.7108C13.6694 13.9298 13.2777 14.1161 12.8721 14.2675C12.8658 14.2699 12.8601 14.2736 12.8553 14.2784C12.8506 14.2832 12.8469 14.2889 12.8445 14.2952C12.8422 14.3015 12.8412 14.3082 12.8416 14.315C12.8421 14.3217 12.8439 14.3282 12.8471 14.3342C13.0726 14.7708 13.3276 15.1861 13.6121 15.58C13.6237 15.5967 13.6454 15.6042 13.6646 15.5975C15.0136 15.1844 16.2823 14.5444 17.4162 13.705C17.4217 13.7008 17.4262 13.6955 17.4295 13.6895C17.4328 13.6835 17.4348 13.6768 17.4354 13.67C17.7487 10.4342 16.9121 7.62417 15.2187 5.1325C15.2143 5.12433 15.2073 5.11788 15.1987 5.11417ZM7.51291 11.965C6.77375 11.965 6.16458 11.2867 6.16458 10.4533C6.16458 9.62 6.76208 8.94167 7.51291 8.94167C8.26958 8.94167 8.87291 9.62584 8.86125 10.4533C8.86125 11.2867 8.26375 11.965 7.51291 11.965ZM12.4971 11.965C11.7579 11.965 11.1487 11.2867 11.1487 10.4533C11.1487 9.62 11.7462 8.94167 12.4971 8.94167C13.2537 8.94167 13.8571 9.62584 13.8454 10.4533C13.8454 11.2867 13.2537 11.965 12.4971 11.965Z" fill="#7D92AF"></path>
</g>
<defs>
<clipPath id="clip0_4002_2008">
<rect width="20" height="20" fill="white"></rect>
</clipPath>
</defs>
</svg>