<svg width="20" height="20" viewBox="0 0 20 20" fill="none" xmlns="http://www.w3.org/2000/svg">
<g clip-path="url(#clip0_4002_2026)">
<path d="M9.99907 2.91663C8.26873 2.91527 6.59774 3.54733 5.30146 4.69352C4.00519 5.8397 3.17329 7.42074 2.96279 9.13822C2.75228 10.8557 3.17772 12.5909 4.15881 14.0162C5.1399 15.4415 6.60879 16.4584 8.28823 16.875V12.165H6.8274V9.99996H8.28823V9.06663C8.28823 6.65663 9.3799 5.53913 11.7466 5.53913C12.1949 5.53913 12.9691 5.62663 13.2857 5.71413V7.67663C13.1191 7.65996 12.8282 7.65079 12.4674 7.65079C11.3066 7.65079 10.8574 8.09079 10.8574 9.23413V9.99996H13.1716L12.7741 12.165H10.8574V17.0316C12.6492 16.814 14.2903 15.9206 15.4456 14.5339C16.6009 13.1471 17.1833 11.3716 17.0737 9.57002C16.9642 7.7684 16.171 6.07656 14.8561 4.84002C13.5413 3.60348 11.804 2.91552 9.99907 2.91663Z" fill="#7D92AF"></path>
</g>
<defs>
<clipPath id="clip0_4002_2026">
<rect width="20" height="20" fill="white"></rect>
</clipPath>
</defs>
</svg>