<svg width="24" height="24" viewBox="0 0 24 24" fill="none" xmlns="http://www.w3.org/2000/svg">
<path d="M9.75 10C9.96667 10 10.1454 10.0712 10.2871 10.2129C10.4288 10.3546 10.5 10.5333 10.5 10.75V15.25C10.5 15.4667 10.4288 15.6455 10.2871 15.7871C10.1454 15.9288 9.96667 16 9.75 16C9.53333 16 9.35456 15.9288 9.21289 15.7871C9.07122 15.6455 9 15.4667 9 15.25V11.5H8.25C8.03333 11.5 7.85456 11.4288 7.71289 11.2871C7.57122 11.1455 7.5 10.9667 7.5 10.75C7.5 10.5333 7.57122 10.3546 7.71289 10.2129C7.85456 10.0712 8.03333 10 8.25 10H9.75Z" fill="white"></path>
<path d="M12.75 16H15.5C15.7833 16 16.0208 15.9042 16.2125 15.7125C16.4042 15.5208 16.5 15.2833 16.5 15V13.25C16.5 13.0333 16.4292 12.8542 16.2875 12.7125C16.1458 12.5708 15.9667 12.5 15.75 12.5H13.5V11.5H15.75C15.9667 11.5 16.1458 11.4292 16.2875 11.2875C16.4292 11.1458 16.5 10.9667 16.5 10.75C16.5 10.5333 16.4292 10.3542 16.2875 10.2125C16.1458 10.0708 15.9667 10 15.75 10H12.75C12.5333 10 12.3542 10.0708 12.2125 10.2125C12.0708 10.3542 12 10.5333 12 10.75L12 12.75C12 12.9667 12.0708 13.1458 12.2125 13.2875C12.3542 13.4292 12.5333 13.5 12.75 13.5H15L15 14.5H12.75C12.5333 14.5 12.3542 14.5708 12.2125 14.7125C12.0708 14.8542 12 15.0333 12 15.25C12 15.4667 12.0708 15.6458 12.2125 15.7875C12.3542 15.9292 12.5333 16 12.75 16Z" fill="white"></path>
<path d="M2 13C2 7.47716 6.47715 3.00001 12 3.00001H12.0859L11.293 2.20704L11.2246 2.13087C10.9043 1.7381 10.9269 1.15909 11.293 0.792978C11.6591 0.426863 12.2381 0.404269 12.6309 0.724619L12.707 0.792978L15.207 3.29298L15.2754 3.36915C15.5744 3.73574 15.5744 4.26428 15.2754 4.63087L15.207 4.70704L12.707 7.20704C12.3165 7.59757 11.6835 7.59757 11.293 7.20704C10.9024 6.81652 10.9024 6.1835 11.293 5.79298L12.0859 5.00001H12C7.58172 5.00001 4 8.58173 4 13C4 17.4183 7.58172 21 12 21C16.4183 21 20 17.4183 20 13C20 12.4477 20.4477 12 21 12C21.5523 12 22 12.4477 22 13C22 18.5229 17.5228 23 12 23C6.47715 23 2 18.5229 2 13Z" fill="white"></path>
</svg>