<svg width="24" height="24" viewBox="0 0 24 24" fill="none" xmlns="http://www.w3.org/2000/svg">
<path d="M12 21C11.4477 21 11 20.5523 11 20V8C11 7.44772 11.4477 7 12 7C12.5523 7 13 7.44772 13 8V20C13 20.5523 12.5523 21 12 21ZM8 18C7.44772 18 7 17.5523 7 17V11C7 10.4477 7.44772 10 8 10C8.55228 10 9 10.4477 9 11V17C9 17.5523 8.55228 18 8 18ZM16 18C15.4477 18 15 17.5523 15 17V11C15 10.4477 15.4477 10 16 10C16.5523 10 17 10.4477 17 11V17C17 17.5523 16.5523 18 16 18ZM4 15C3.44772 15 3 14.5523 3 14C3 13.4477 3.44772 13 4 13C4.55228 13 5 13.4477 5 14C5 14.5523 4.55228 15 4 15ZM20 15C19.4477 15 19 14.5523 19 14C19 13.4477 19.4477 13 20 13C20.5523 13 21 13.4477 21 14C21 14.5523 20.5523 15 20 15ZM3 10C2.44772 10 2 9.55228 2 9C2 8.44772 2.44772 8 3 8H3.175C3.875 8 4.52917 7.825 5.1375 7.475C5.74583 7.125 6.23333 6.65 6.6 6.05C7.16667 5.1 7.92917 4.35417 8.8875 3.8125C9.84583 3.27083 10.8833 3 12 3C13.1167 3 14.1542 3.27083 15.1125 3.8125C16.0708 4.35417 16.8333 5.1 17.4 6.05C17.7667 6.65 18.2542 7.125 18.8625 7.475C19.4708 7.825 20.125 8 20.825 8H21C21.5523 8 22 8.44772 22 9C22 9.55228 21.5523 10 21 10H20.85C19.8 10 18.8125 9.74167 17.8875 9.225C16.9625 8.70833 16.2333 8 15.7 7.1C15.3167 6.45 14.7958 5.9375 14.1375 5.5625C13.4792 5.1875 12.7667 5 12 5C11.25 5 10.5458 5.1875 9.8875 5.5625C9.22917 5.9375 8.70833 6.45 8.325 7.1C7.79167 8 7.0625 8.70833 6.1375 9.225C5.2125 9.74167 4.225 10 3.175 10H3Z" fill="white"></path>
</svg>