<svg width="20" height="20" viewBox="0 0 20 20" fill="none" xmlns="http://www.w3.org/2000/svg">
<g clip-path="url(#clip0_2033_1334)">
<path d="M17.0117 5.70085L13.6551 8.11918C13.5501 8.19394 13.4294 8.24361 13.3023 8.26437C13.1751 8.28512 13.0449 8.2764 12.9216 8.23888C12.7983 8.20137 12.6853 8.13605 12.5913 8.04797C12.4973 7.95989 12.4247 7.8514 12.3792 7.73085L10.7926 3.46835C10.5242 2.73252 9.49172 2.73252 9.22339 3.46835L7.62839 7.72168C7.5854 7.8431 7.51459 7.95276 7.42162 8.04189C7.32864 8.13103 7.21609 8.19715 7.09297 8.23498C6.96986 8.27281 6.83959 8.28128 6.71261 8.25973C6.58563 8.23817 6.46546 8.18718 6.36172 8.11085L3.00339 5.69251C2.33255 5.21918 1.44255 5.88668 1.72005 6.67335L5.21172 16.525C5.26885 16.6884 5.37545 16.83 5.51673 16.9301C5.658 17.0301 5.82693 17.0837 6.00005 17.0833H13.9992C14.3517 17.0833 14.6701 16.855 14.7876 16.525L18.2792 6.67335C18.5651 5.88668 17.6742 5.21918 17.0117 5.70085ZM12.1026 13.5067H7.90505C7.73779 13.5047 7.57802 13.437 7.46029 13.3182C7.34255 13.1993 7.27631 13.039 7.27589 12.8717C7.27589 12.525 7.56089 12.2383 7.90505 12.2383H12.1017C12.4459 12.2383 12.7317 12.525 12.7317 12.8717C12.7311 13.039 12.6646 13.1993 12.5467 13.3179C12.4288 13.4366 12.269 13.5041 12.1017 13.5058" fill="white"></path>
</g>
<defs>
<clipPath id="clip0_2033_1334">
<rect width="20" height="20" fill="white"></rect>
</clipPath>
</defs>
</svg>