<svg width="20" height="20" viewBox="0 0 20 20" fill="none" xmlns="http://www.w3.org/2000/svg">
<g clip-path="url(#clip0_2033_1335)">
<path d="M9.41101 1.91083C9.56728 1.7546 9.77921 1.66684 10.0002 1.66684C10.2211 1.66684 10.4331 1.7546 10.5893 1.91083L13.9227 5.24416C14.0745 5.40133 14.1585 5.61183 14.1566 5.83033C14.1547 6.04883 14.067 6.25784 13.9125 6.41234C13.758 6.56685 13.549 6.65449 13.3305 6.65639C13.112 6.65829 12.9015 6.57429 12.7443 6.42249L10.8335 4.51166V12.5C10.8335 12.721 10.7457 12.933 10.5894 13.0893C10.4332 13.2455 10.2212 13.3333 10.0002 13.3333C9.77916 13.3333 9.5672 13.2455 9.41092 13.0893C9.25464 12.933 9.16684 12.721 9.16684 12.5V4.51166L7.25601 6.42249C7.09884 6.57429 6.88834 6.65829 6.66984 6.65639C6.45135 6.65449 6.24233 6.56685 6.08783 6.41234C5.93332 6.25784 5.84568 6.04883 5.84378 5.83033C5.84188 5.61183 5.92588 5.40133 6.07768 5.24416L9.41101 1.91083Z" fill="#3F4E64"></path>
<path d="M2.49935 9.16666C2.72036 9.16666 2.93232 9.25445 3.0886 9.41073C3.24488 9.56701 3.33268 9.77898 3.33268 9.99999V13.5C3.33268 14.2142 3.33268 14.6992 3.36435 15.0742C3.39352 15.4392 3.44768 15.6267 3.51435 15.7567C3.67414 16.0702 3.92909 16.3252 4.24268 16.485C4.37268 16.5517 4.55935 16.6058 4.92518 16.635C5.30018 16.6667 5.78518 16.6667 6.49935 16.6667H13.4993C14.2135 16.6667 14.6985 16.6667 15.0735 16.635C15.4385 16.6058 15.626 16.5517 15.756 16.485C16.0696 16.3252 16.3246 16.0702 16.4843 15.7567C16.551 15.6267 16.6052 15.44 16.6343 15.0742C16.6652 14.6992 16.666 14.2142 16.666 13.5V9.99999C16.666 9.77898 16.7538 9.56701 16.9101 9.41073C17.0664 9.25445 17.2783 9.16666 17.4993 9.16666C17.7204 9.16666 17.9323 9.25445 18.0886 9.41073C18.2449 9.56701 18.3327 9.77898 18.3327 9.99999V13.5342C18.3327 14.205 18.3327 14.7592 18.296 15.2092C18.2577 15.6783 18.1752 16.1092 17.9693 16.5133C17.6498 17.1405 17.1399 17.6504 16.5127 17.97C16.1085 18.1758 15.6777 18.2583 15.2093 18.2967C14.7585 18.3333 14.2043 18.3333 13.5343 18.3333H6.46435C5.79352 18.3333 5.23935 18.3333 4.78935 18.2967C4.32018 18.2583 3.88935 18.1758 3.48518 17.97C2.858 17.6504 2.34809 17.1405 2.02852 16.5133C1.82268 16.1092 1.74018 15.6783 1.70185 15.21C1.66602 14.7583 1.66602 14.205 1.66602 13.535V9.99999C1.66602 9.77898 1.75381 9.56701 1.91009 9.41073C2.06637 9.25445 2.27834 9.16666 2.49935 9.16666Z" fill="#3F4E64"></path>
</g>
<defs>
<clipPath id="clip0_2033_1335">
<rect width="20" height="20" fill="white"></rect>
</clipPath>
</defs>
</svg>