<svg width="20" height="20" viewBox="0 0 20 20" fill="none" xmlns="http://www.w3.org/2000/svg">
<g clip-path="url(#clip0_4002_2032)">
<path d="M10.0071 4.19246C11.9013 4.19246 12.1255 4.20079 12.8705 4.23413C13.5621 4.26413 13.9363 4.38079 14.1855 4.47746C14.5146 4.60496 14.753 4.75996 14.9996 5.00579C15.2488 5.25579 15.4013 5.48996 15.528 5.81996C15.6255 6.06913 15.7413 6.44496 15.7721 7.13413C15.8055 7.88163 15.8138 8.10579 15.8138 9.99579C15.8138 11.8891 15.8055 12.1125 15.7721 12.8575C15.7413 13.5491 15.6255 13.9225 15.528 14.1716C15.4013 14.5008 15.2463 14.7391 14.9996 14.9858C14.7717 15.2212 14.4933 15.4018 14.1855 15.5141C13.9355 15.6108 13.5596 15.7275 12.8705 15.7575C12.1221 15.7908 11.898 15.7991 10.0071 15.7991C8.11297 15.7991 7.8888 15.7908 7.1438 15.7575C6.4513 15.7275 6.07714 15.6108 5.82797 15.5141C5.52012 15.4018 5.24175 15.2212 5.0138 14.9858C4.77839 14.7578 4.59775 14.4795 4.48547 14.1716C4.38797 13.9225 4.27214 13.5466 4.2413 12.8575C4.20797 12.11 4.19964 11.8858 4.19964 9.99579C4.19964 8.10246 4.20797 7.87913 4.2413 7.13413C4.27214 6.44246 4.38797 6.06913 4.48547 5.81996C4.61297 5.48996 4.76797 5.25246 5.0138 5.00579C5.2638 4.75663 5.4988 4.60496 5.82797 4.47746C6.07797 4.38079 6.4538 4.26413 7.1438 4.23413C7.8888 4.20079 8.11297 4.19246 10.0071 4.19246ZM10.0071 2.91663C8.08214 2.91663 7.8413 2.92496 7.08547 2.95829C6.33214 2.99163 5.81464 3.11329 5.36547 3.28746C4.89169 3.46528 4.46271 3.74492 4.1088 4.10663C3.74823 4.46034 3.4685 4.88791 3.2888 5.35996C3.1138 5.81163 2.99297 6.32663 2.95964 7.07913C2.9263 7.83746 2.91797 8.07829 2.91797 10.0016C2.91797 11.925 2.9263 12.1658 2.95964 12.9208C2.99297 13.6741 3.11464 14.1916 3.2888 14.64C3.46698 15.1135 3.74689 15.5422 4.1088 15.8958C4.50214 16.2891 4.89797 16.5325 5.36297 16.7125C5.81464 16.8875 6.32964 17.0083 7.08297 17.0416C7.8388 17.075 8.07964 17.0833 10.0038 17.0833C11.928 17.0833 12.1696 17.075 12.9255 17.0416C13.6788 17.0083 14.1963 16.8866 14.6455 16.7125C15.1175 16.5338 15.5454 16.2553 15.8996 15.8958C16.293 15.5033 16.5363 15.1075 16.7163 14.6425C16.8913 14.1916 17.013 13.6758 17.0455 12.9241C17.0788 12.1683 17.0871 11.9275 17.0871 10.0041C17.0871 8.08079 17.0788 7.83996 17.0455 7.08413C17.0121 6.33163 16.8905 5.81413 16.7163 5.36579C16.5448 4.88992 16.2672 4.45933 15.9046 4.10663C15.551 3.74633 15.123 3.46762 14.6505 3.28996C14.1996 3.11579 13.6838 2.99413 12.9313 2.96079C12.173 2.92496 11.9313 2.91663 10.0063 2.91663" fill="#7D92AF"></path>
<path d="M10.0049 6.36255C9.03955 6.36255 8.11366 6.74588 7.43078 7.42829C6.74791 8.11069 6.36394 9.03632 6.36328 10.0017C6.36328 10.9676 6.74696 11.8938 7.4299 12.5768C8.11285 13.2597 9.03912 13.6434 10.0049 13.6434C10.9708 13.6434 11.897 13.2597 12.58 12.5768C13.2629 11.8938 13.6466 10.9676 13.6466 10.0017C13.646 9.03632 13.262 8.11069 12.5791 7.42829C11.8962 6.74588 10.9703 6.36255 10.0049 6.36255ZM10.0049 12.3626C9.69481 12.3627 9.38769 12.3017 9.10111 12.1831C8.81454 12.0645 8.55413 11.8907 8.33475 11.6714C8.11537 11.4522 7.94132 11.1919 7.82254 10.9054C7.70375 10.6189 7.64256 10.3119 7.64245 10.0017C7.64245 9.37515 7.89135 8.77424 8.33441 8.33118C8.77746 7.88813 9.37837 7.63922 10.0049 7.63922C10.6315 7.63922 11.2324 7.88813 11.6755 8.33118C12.1185 8.77424 12.3674 9.37515 12.3674 10.0017C12.367 10.6279 12.1179 11.2283 11.6748 11.6709C11.2318 12.1134 10.6312 12.3619 10.0049 12.3617M14.6408 6.21839C14.6407 6.44393 14.551 6.66019 14.3914 6.8196C14.2318 6.97901 14.0155 7.0685 13.7899 7.06839C13.5644 7.06828 13.3481 6.97857 13.1887 6.81901C13.0293 6.65945 12.9398 6.4431 12.9399 6.21755C12.9399 5.99212 13.0295 5.77592 13.1889 5.61651C13.3483 5.45711 13.5645 5.36755 13.7899 5.36755C14.0154 5.36755 14.2316 5.45711 14.391 5.61651C14.5504 5.77592 14.6399 5.99212 14.6399 6.21755" fill="#7D92AF"></path>
</g>
<defs>
<clipPath id="clip0_4002_2032">
<rect width="20" height="20" fill="white"></rect>
</clipPath>
</defs>
</svg>