<svg width="20" height="20" viewBox="0 0 20 20" fill="none" xmlns="http://www.w3.org/2000/svg">
<g clip-path="url(#clip0_4002_2039)">
<path d="M16.0363 2.91663H3.9638C3.38547 2.91663 2.91797 3.37329 2.91797 3.93746V16.0591C2.91797 16.6241 3.38547 17.0833 3.9638 17.0833H16.0363C16.6146 17.0833 17.0846 16.6241 17.0846 16.0625V3.93746C17.0846 3.37329 16.6146 2.91663 16.0363 2.91663ZM7.1213 14.9891H5.01797V8.22663H7.1213V14.9891ZM6.06964 7.30496C5.90703 7.30948 5.74516 7.2814 5.59358 7.22236C5.44201 7.16332 5.30379 7.07452 5.18708 6.96121C5.07037 6.84789 4.97753 6.71236 4.91404 6.56259C4.85056 6.41282 4.81771 6.25185 4.81743 6.08918C4.81715 5.92651 4.84945 5.76543 4.91242 5.61545C4.9754 5.46546 5.06777 5.32961 5.18409 5.21589C5.30041 5.10218 5.43833 5.01291 5.5897 4.95336C5.74108 4.8938 5.90285 4.86516 6.06547 4.86913C6.38299 4.87687 6.68494 5.00831 6.90696 5.23543C7.12899 5.46255 7.25355 5.7674 7.25409 6.08501C7.25463 6.40263 7.13112 6.7079 6.90987 6.93578C6.68862 7.16366 6.38713 7.29613 6.06964 7.30496ZM14.9905 14.9883H12.8905V11.7016C12.8905 10.9183 12.8763 9.90829 11.7971 9.90829C10.7038 9.90829 10.5388 10.7633 10.5388 11.6466V14.9883H8.44047V8.22663H10.4546V9.15079H10.483C10.7621 8.61913 11.4488 8.05746 12.4696 8.05746C14.5971 8.05746 14.9896 9.45746 14.9896 11.2783L14.9905 14.9883Z" fill="#7D92AF"></path>
</g>
<defs>
<clipPath id="clip0_4002_2039">
<rect width="20" height="20" fill="white"></rect>
</clipPath>
</defs>
</svg>