<svg width="24" height="24" viewBox="0 0 24 24" fill="none" xmlns="http://www.w3.org/2000/svg">
<path d="M12.0007 4.5C14.4337 4.50005 16.6503 5.179 18.6501 6.53711C20.214 7.59929 21.4424 8.94446 22.3337 10.5723C22.8203 11.4609 22.8203 12.5391 22.3337 13.4277C21.4424 15.0555 20.214 16.4007 18.6501 17.4629C16.6503 18.821 14.4337 19.4999 12.0007 19.5C9.5674 19.5 7.35026 18.8212 5.35029 17.4629C3.78642 16.4008 2.55898 15.0554 1.66768 13.4277C1.18109 12.5391 1.18109 11.4609 1.66768 10.5723C2.55898 8.94457 3.78642 7.59924 5.35029 6.53711C7.35026 5.17883 9.5674 4.5 12.0007 4.5ZM12.0007 9C10.3438 9 9.00068 10.3431 9.00068 12C9.00068 13.6569 10.3438 15 12.0007 15C13.6574 14.9998 15.0007 13.6568 15.0007 12C15.0007 10.3432 13.6574 9.00016 12.0007 9Z" fill="white"></path>
</svg>