<svg width="40" height="40" viewBox="0 0 40 40" fill="none" xmlns="http://www.w3.org/2000/svg">
<path d="M26.6667 31.6666C25.75 31.6666 24.9653 31.3402 24.3125 30.6874C23.6597 30.0346 23.3333 29.2499 23.3333 28.3333V11.6666C23.3333 10.7499 23.6597 9.9652 24.3125 9.31242C24.9653 8.65964 25.75 8.33325 26.6667 8.33325C27.5833 8.33325 28.3681 8.65964 29.0208 9.31242C29.6736 9.9652 30 10.7499 30 11.6666V28.3333C30 29.2499 29.6736 30.0346 29.0208 30.6874C28.3681 31.3402 27.5833 31.6666 26.6667 31.6666ZM13.3333 31.6666C12.4167 31.6666 11.6319 31.3402 10.9792 30.6874C10.3264 30.0346 10 29.2499 10 28.3333V11.6666C10 10.7499 10.3264 9.9652 10.9792 9.31242C11.6319 8.65964 12.4167 8.33325 13.3333 8.33325C14.25 8.33325 15.0347 8.65964 15.6875 9.31242C16.3403 9.9652 16.6667 10.7499 16.6667 11.6666V28.3333C16.6667 29.2499 16.3403 30.0346 15.6875 30.6874C15.0347 31.3402 14.25 31.6666 13.3333 31.6666Z" fill="white"></path>
</svg>