<svg width="20" height="20" viewBox="0 0 20 20" fill="none" xmlns="http://www.w3.org/2000/svg">
<path d="M12.0334 4.54919C12.1278 4.94878 12.3664 5.29944 12.7035 5.53394C13.0405 5.76844 13.4523 5.87026 13.8598 5.81989C14.2673 5.76953 14.6419 5.57051 14.9117 5.261C15.1815 4.95149 15.3275 4.55328 15.3218 4.14272C15.3162 3.73216 15.1591 3.33815 14.8808 3.03624C14.6026 2.73433 14.2226 2.54576 13.8139 2.50671C13.4051 2.46765 12.9964 2.58084 12.6659 2.82459C12.3355 3.06834 12.1067 3.42547 12.0234 3.82753C11.3646 3.89954 10.7556 4.21203 10.3129 4.70514C9.87021 5.19826 9.62499 5.83735 9.6242 6.50003V6.50836C8.15836 6.57086 6.82086 6.98753 5.75753 7.64669C5.49776 7.44625 5.19866 7.30281 4.87974 7.22571C4.56081 7.14862 4.22922 7.1396 3.90658 7.19926C3.58393 7.25891 3.27749 7.38589 3.00721 7.57192C2.73693 7.75795 2.5089 7.99885 2.33797 8.27893C2.16704 8.559 2.05705 8.87195 2.01518 9.19738C1.97331 9.52281 2.0005 9.85341 2.09497 10.1676C2.18944 10.4818 2.34907 10.7726 2.56345 11.021C2.77784 11.2694 3.04216 11.4698 3.3392 11.6092C3.41753 14.32 6.37086 16.5009 10.005 16.5009C13.6392 16.5009 16.5967 14.3175 16.67 11.6042C16.9673 11.4646 17.2318 11.264 17.4463 11.0152C17.6608 10.7665 17.8204 10.4754 17.9148 10.1608C18.0091 9.84628 18.0361 9.51536 17.9939 9.18967C17.9517 8.86398 17.8413 8.55085 17.6699 8.27072C17.4985 7.99058 17.2699 7.74973 16.9992 7.56389C16.7284 7.37805 16.4215 7.2514 16.0985 7.1922C15.7754 7.133 15.4435 7.14258 15.1245 7.22032C14.8054 7.29806 14.5063 7.44221 14.2467 7.64336C13.1742 6.98003 11.8217 6.56253 10.3409 6.50753V6.50003C10.3409 5.50836 11.0784 4.68503 12.0342 4.55003L12.0334 4.54919ZM5.66336 10.975C5.70253 10.1284 6.26503 9.47836 6.9192 9.47836C7.57336 9.47836 8.07253 10.165 8.03336 11.0117C7.9942 11.8584 7.5067 12.1667 6.8517 12.1667C6.1967 12.1667 5.6242 11.8225 5.66336 10.975ZM13.09 9.47836C13.7442 9.47836 14.3067 10.1284 14.345 10.975C14.3834 11.8217 13.8117 12.1667 13.1575 12.1667C12.5034 12.1667 12.0142 11.86 11.975 11.0117C11.9359 10.165 12.435 9.47836 13.09 9.47836ZM12.3117 12.935C12.4342 12.9475 12.5125 13.0742 12.465 13.1884C12.2623 13.6739 11.9205 14.0886 11.4826 14.3803C11.0447 14.672 10.5304 14.8277 10.0042 14.8277C9.47804 14.8277 8.96365 14.672 8.52576 14.3803C8.08787 14.0886 7.74607 13.6739 7.54336 13.1884C7.53262 13.1618 7.5282 13.1331 7.53046 13.1045C7.53273 13.0759 7.5416 13.0482 7.55639 13.0236C7.57118 12.9991 7.59148 12.9783 7.61568 12.9629C7.63989 12.9475 7.66734 12.938 7.69586 12.935C8.46298 12.8594 9.23337 12.8219 10.0042 12.8225C10.8159 12.8225 11.5925 12.8617 12.3125 12.935" fill="#7D92AF"></path>
</svg>