<svg width="24" height="24" viewBox="0 0 24 24" fill="none" xmlns="http://www.w3.org/2000/svg">
<path d="M16.5 12C16.5 10.23 15.48 8.71 14 7.97V9.18L15.87 11.05C15.9 10.85 15.92 10.64 15.92 10.42L16.5 12ZM19 12C19 12.94 18.8 13.82 18.46 14.64L19.97 16.15C20.63 14.91 21 13.5 21 12C21 7.72 18.01 4.14 14 3.23V5.29C16.89 6.15 19 8.83 19 12ZM4.27 3L3 4.27L7.73 9H4V15H8L13 20V13.27L17.25 17.52C16.58 18.04 15.83 18.45 15 18.7V20.76C16.38 20.45 17.63 19.81 18.69 18.96L20.73 21L22 19.73L4.27 3ZM13 4L10.91 6.09L13 8.18V4Z" fill="white"></path>
</svg>
